<?xml version="1.0" standalone="no"?>
<!DOCTYPE svg PUBLIC "-//W3C//DTD SVG 20010904//EN" "http://www.w3.org/TR/2001/REC-SVG-20010904/DTD/svg10.dtd">
<svg version="1.0" xmlns="http://www.w3.org/2000/svg" width="204" height="204" viewBox="0 0 2560.000000 1657.000000" preserveAspectRatio="xMidYMid meet">
<g transform="translate(0.000000,1657.000000) scale(0.100000,-0.100000)" fill="#ffffff" stroke="none">
<path fill="#ffffff" d="M2760 15455 l0 -1115 890 0 890 0 0 370 0 370 -515 0 -515 0 0 375 0 375 515 0 515 0 0 370 0 370 -890 0 -890 0 0 -1115z"/>
<path fill="#ffffff" d="M4900 15840 l0 -730 515 0 515 0 0 -65 0 -65 -515 0 -515 0 0 -340 0 -340 888 2 887 3 3 742 2 743 -517 2 -518 3 -3 63 -3 62 521 0 520 0 0 325 0 325 -890 0 -890 0 0 -730z"/>
<path fill="#ffffff" d="M7032 15843 l3 -728 518 -3 517 -2 0 -65 0 -65 -520 0 -520 0 2 -337 3 -338 888 -3 887 -2 0 745 0 745 -515 0 -515 0 0 65 0 65 515 0 515 0 0 325 0 325 -890 0 -890 0 2 -727z"/>
<path fill="#ffffff" d="M14960 15455 l0 -1115 375 0 375 0 0 370 0 370 340 0 340 0 0 -370 0 -370 375 0 375 0 0 1115 0 1115 -375 0 -375 0 0 -370 0 -370 -340 0 -340 0 0 370 0 370 -375 0 -375 0 0 -1115z"/>
<path fill="#ffffff" d="M17460 16200 l0 -370 330 0 330 0 0 -745 0 -745 375 0 375 0 0 745 0 745 330 0 330 0 0 370 0 370 -1035 0 -1035 0 0 -370z"/>
<path fill="#ffffff" d="M19850 15455 l0 -1115 365 0 365 0 0 545 c0 300 3 545 8 545 4 0 120 -176 257 -390 138 -214 255 -389 260 -389 6 0 123 175 260 389 138 214 253 390 258 390 4 0 7 -245 7 -545 l0 -545 370 0 370 0 0 1115 0 1115 -392 -2 -391 -3 -236 -388 c-219 -360 -237 -386 -251 -369 -8 10 -116 186 -240 390 l-225 371 -392 1 -393 0 0 -1115z"/>
<path fill="#ffffff" d="M22740 15455 l0 -1115 900 0 900 0 0 365 0 365 -525 0 -525 0 0 750 0 750 -375 0 -375 0 0 -1115z"/>
<path fill="#E34F26" d="M6 13268 c3 -24 243 -2718 535 -5987 291 -3269 530 -5946 532 -5947 1 -2 1080 -302 2397 -667 l2394 -665 2400 665 c1321 366 2402 666 2403 667 0 0 240 2681 532 5956 292 3275 533 5970 535 5988 l5 32 -5869 0 -5870 0 6 -42z m9539 -2450 c-3 -29 -71 -786 -151 -1683 -328 -3694 -514 -5758 -516 -5760 -3 -2 -516 -145 -2528 -701 l-485 -134 -1500 416 c-825 229 -1503 419 -1508 423 -7 7 -207 2206 -207 2278 l0 33 735 0 735 0 4 -22 c3 -13 27 -276 55 -586 27 -310 51 -565 52 -566 6 -5 1613 -438 1629 -438 12 -1 1629 431 1638 438 2 1 172 1871 172 1896 0 4 -1145 8 -2544 8 l-2545 0 -5 43 c-7 51 -126 1386 -126 1410 0 16 157 17 2675 17 1471 0 2675 4 2675 8 0 5 29 337 65 738 36 401 65 735 65 742 0 9 -568 12 -2805 12 -1543 0 -2805 1 -2806 3 -5 12 -135 1464 -132 1470 2 4 1660 7 3684 7 l3680 0 -6 -52z"/>
<path fill="#1572B6" d="M13877 13283 c2 -16 242 -2710 534 -5988 292 -3278 532 -5961 532 -5961 5 -4 4775 -1326 4787 -1327 11 0 4797 1321 4806 1327 3 2 1065 11923 1064 11949 l0 27 -5863 0 -5864 0 4 -27z m9543 -2426 c0 -7 -29 -339 -65 -737 -36 -398 -65 -725 -65 -727 0 -2 -1264 -3 -2810 -3 l-2810 0 0 -30 c0 -34 117 -1362 126 -1427 l5 -43 2677 -2 2677 -3 -201 -2253 c-110 -1239 -203 -2254 -205 -2257 -3 -2 -681 -192 -1508 -421 l-1503 -416 -1507 417 c-828 230 -1507 419 -1509 420 -5 4 -209 2300 -205 2308 2 4 335 7 739 7 579 0 735 -3 739 -12 2 -7 27 -271 54 -587 28 -316 52 -575 53 -576 9 -5 1616 -435 1628 -435 21 0 1623 432 1633 440 4 3 43 409 87 901 44 492 82 918 85 947 l6 52 -2545 0 -2545 0 -5 33 c-3 17 -91 1000 -196 2182 -104 1183 -193 2169 -196 2193 l-5 42 3685 0 c3037 0 3686 -2 3686 -13z"/>
</g>
</svg>
